<svg width="44" height="39" viewBox="0 0 44 39" fill="none" xmlns="http://www.w3.org/2000/svg">
<path d="M40.5095 3.81664C38.2318 1.35549 35.1065 0 31.7086 0C29.1687 0 26.8428 0.800007 24.7949 2.37759C23.7617 3.17383 22.8254 4.14815 22 5.28515C21.1748 4.14841 20.2383 3.17383 19.2047 2.37759C17.1573 0.800007 14.8313 0 12.2914 0C8.8935 0 5.76787 1.35549 3.49018 3.81664C1.23973 6.24903 0 9.57209 0 13.174C0 16.8812 1.38677 20.2749 4.36399 23.8541C7.02737 27.0557 10.8553 30.3058 15.2881 34.0693C16.8018 35.3546 18.5176 36.8114 20.299 38.3632C20.7698 38.7739 21.3743 39.0002 22 39C22.6261 39 23.2303 38.7739 23.7003 38.3639C25.4818 36.8117 27.1985 35.3542 28.7128 34.0683C33.1451 30.3054 36.9729 27.0557 39.6364 23.8537C42.6136 20.275 44 16.8813 44 13.1737C44 9.57209 42.7603 6.24903 40.5095 3.81664Z" fill="#FF3B3B"/>
</svg>
