<svg width="32" height="32" viewBox="0 0 32 32" fill="none" xmlns="http://www.w3.org/2000/svg">
<path d="M16 0C7.16437 0 0 7.16328 0 16C0 24.8367 7.16367 32 16 32C24.837 32 32 24.8367 32 16C32 7.16328 24.837 0 16 0ZM16 4.78419C17.4036 4.78409 18.7497 5.34159 19.7422 6.33403C20.7347 7.32647 21.2924 8.67255 21.2925 10.0762C21.2925 11.4798 20.7351 12.8259 19.7427 13.8185C18.7503 14.8111 17.4043 15.3688 16.0007 15.3689C14.5972 15.3689 13.251 14.8115 12.2585 13.819C11.266 12.8266 10.7083 11.4805 10.7082 10.0769C10.7082 8.67326 11.2656 7.32709 12.258 6.33452C13.2504 5.34195 14.5964 4.78428 16 4.78419ZM15.9965 27.8167C13.1928 27.8199 10.4805 26.8197 8.35 24.997C8.10206 24.7854 7.90293 24.5226 7.76632 24.2267C7.6297 23.9307 7.55885 23.6087 7.55864 23.2828C7.55864 20.3189 9.9573 17.9468 12.9217 17.9468H19.0797C22.0448 17.9468 24.4343 20.3189 24.4343 23.2828C24.4345 23.6086 24.3639 23.9306 24.2274 24.2265C24.0909 24.5223 23.8917 24.785 23.6437 24.9963C21.5133 26.8197 18.8006 27.8202 15.9965 27.8167Z" fill="#FF3B3B"/>
</svg>
