<svg width="140" height="31" viewBox="0 0 140 31" fill="none" xmlns="http://www.w3.org/2000/svg">
<path d="M11.9072 30.4505C9.91546 30.1185 9.41031 29.9598 7.86598 29.1804C5.84536 28.1556 4.05567 26.6979 2.87217 25.0958C2.52577 24.6196 2.20825 24.201 2.16495 24.1577C1.89072 23.8835 1.24124 22.5123 0.909279 21.502C0.779382 21.0979 0.620619 20.6361 0.562887 20.4773C0.360825 19.9144 0 17.7206 0 16.9701C0 15.5701 0.57732 12.5536 1.01031 11.601C2.43918 8.54121 4.18557 6.44842 6.52371 4.99069C7.70722 4.25461 9.23711 3.51852 9.5835 3.51852C9.7134 3.51852 9.9299 3.46079 10.0742 3.37419C10.4351 3.17213 12.9608 2.79688 13.9423 2.79688C15.1113 2.79688 17.1608 3.17213 18.5464 3.63399C19.7588 4.03811 22.5299 5.61131 22.6309 5.9577C22.6742 6.07316 21.8948 6.92471 20.7835 8.00719L18.8784 9.85461L17.9835 9.37832C16.468 8.57007 15.8619 8.42574 13.9423 8.44018C11.9938 8.44018 11.301 8.61337 9.90103 9.42162C8.67423 10.1288 7.05773 11.8031 6.52371 12.9288C5.78763 14.4443 5.70103 14.8629 5.71547 16.7969C5.71547 18.3556 5.7732 18.7453 6.09072 19.6402C6.72577 21.4299 8.28454 23.2051 10.0454 24.1866C11.301 24.8938 12.1526 25.0814 13.9278 25.0814C15.8763 25.0958 16.5546 24.9226 17.9546 24.0855C18.4165 23.7969 18.8206 23.5804 18.8495 23.6092C19.5711 24.201 22.6165 27.4051 22.5732 27.5206C22.3856 27.9536 20.3505 29.166 18.9938 29.6711C16.8289 30.4649 13.9423 30.7824 11.9072 30.4505Z" fill="#FF3B3B"/>
<path d="M26.9897 20.2175C26.9897 12.2938 27.033 9.73913 27.1629 9.60923C27.2783 9.49377 28.1155 9.43604 29.9773 9.43604H32.6186V20.0443V30.6525H29.8041H26.9897V20.2175Z" fill="#FF3B3B"/>
<path d="M35.0722 20.1165V9.58043L35.4619 9.42166C35.6783 9.33507 36.8474 9.29177 38.1175 9.3062C39.9649 9.32063 40.4124 9.36393 40.4701 9.53713C40.5134 9.65259 40.5567 10.1577 40.5567 10.6629C40.5567 11.5866 40.6433 12.034 40.8309 12.034C40.8887 12.034 41.3072 11.7165 41.7835 11.3124C42.7938 10.4608 44.2515 9.82579 45.7814 9.56599C46.6907 9.42166 47.1526 9.42166 48.235 9.56599C51.6845 10.0278 53.9649 11.5722 55.5237 14.4876C56.5917 16.4938 56.7216 17.5619 56.7216 24.9949V30.6526H54.1959H51.6845L51.6412 24.634L51.5979 18.601L51.2515 17.8938C50.7897 16.9701 49.4618 15.6279 48.6392 15.2526C47.4268 14.6897 47.1814 14.632 46.2433 14.632C44.0206 14.632 42.0289 15.9021 41.033 17.9516C40.6577 18.7454 40.6433 18.7454 40.6 22.6423C40.5711 24.7928 40.5423 27.4485 40.5134 28.5598L40.4845 30.5804L37.7856 30.6237L35.0722 30.6526V20.1165Z" fill="#FF3B3B"/>
<path d="M67.1134 30.4938C66.8392 30.4072 66.3485 30.2773 66.0309 30.1763C64.5155 29.7577 62.668 28.5454 61.4124 27.1598C60.3876 26.034 59.8536 25.1103 59.3196 23.5804C58.8577 22.2814 58.8433 22.1082 58.8433 20.1887C58.8433 17.8505 59.0165 17.0711 59.9402 15.2237C60.9216 13.2608 63 11.2546 64.9485 10.4175C66.0742 9.92681 66.334 9.85464 67.3876 9.65258C68.7588 9.37835 70.0722 9.37835 71.3711 9.63815C72.3526 9.82577 72.5402 9.88351 73.8969 10.4897C75.4268 11.1536 77.0866 12.5969 78.1835 14.199C78.6887 14.9206 78.8907 15.3103 79.367 16.3639C79.6557 16.999 79.9588 19.1351 79.9588 20.5206V21.8485H72.2515C63.8948 21.8485 63.9814 21.834 64.3856 22.599C64.7175 23.2196 65.5258 24.201 65.9876 24.5474C67.1134 25.3701 67.6619 25.5289 69.3649 25.5289C70.3031 25.5144 71.068 25.4567 71.1691 25.3557C71.2845 25.2691 71.5299 25.1536 71.732 25.0959C71.934 25.0381 72.367 24.7639 72.699 24.5041C73.2763 24.0278 73.9546 23.8691 74.2722 24.1289C74.3443 24.201 75.2969 24.5474 76.3794 24.8938C77.4763 25.2402 78.3711 25.5866 78.3711 25.6443C78.3711 25.8608 77.2454 27.2753 76.5093 27.9825C75.3835 29.065 74.301 29.7289 72.9876 30.1763C71.9485 30.5083 71.5443 30.566 69.7113 30.5948C68.5567 30.6237 67.3876 30.566 67.1134 30.4938ZM74.3299 17.8217C74.3299 17.0567 72.3381 15.1804 71.299 14.9784C71.0536 14.9206 70.8227 14.8196 70.7794 14.7619C70.7361 14.6897 70.1443 14.632 69.4515 14.632C68.0371 14.632 67.2144 14.8773 66.1897 15.599C65.3814 16.1763 64.3711 17.4464 64.3711 17.8938V18.2402H69.3505H74.3299V17.8217Z" fill="#FF3B3B"/>
<path d="M82.3113 17.3165C82.3258 9.98454 82.3691 3.93711 82.4124 3.90825C82.4557 3.86495 86.1505 3.80722 90.6392 3.79278L98.7938 3.76392L98.8371 6.52062L98.866 9.29175H93.8433C90.134 9.29175 88.7773 9.33505 88.6474 9.46495C88.4021 9.71031 88.4021 14.0691 88.6474 14.3144C88.7773 14.4443 89.8309 14.4876 92.4722 14.4876H96.1237V17.2299V19.9722H92.4722C89.8309 19.9722 88.7773 20.0155 88.6474 20.1454C88.5175 20.2753 88.4742 21.6608 88.4742 25.4856V30.6526H85.3711H82.2825L82.3113 17.3165Z" fill="#FF3B3B"/>
<path d="M101.724 16.4939C101.738 8.70008 101.81 2.21967 101.882 2.08977C101.998 1.88771 102.344 1.85884 104.596 1.87328H107.165L107.208 16.263L107.237 30.6527H104.466H101.68L101.724 16.4939Z" fill="#FF3B3B"/>
<path d="M110.138 20.2319C110.138 13.0731 110.181 9.75354 110.297 9.62364C110.513 9.34941 115.363 9.34941 115.594 9.62364C115.695 9.76797 115.738 12.7989 115.709 20.203L115.68 30.5803L112.909 30.6236L110.138 30.6525V20.2319Z" fill="#FF3B3B"/>
<path d="M132.856 27.4053C131.037 25.63 129.464 24.1723 129.363 24.1579C129.276 24.1579 127.746 25.5867 125.986 27.3331C124.225 29.0795 122.724 30.5084 122.652 30.5084C122.579 30.5084 121.713 29.7146 120.718 28.7476C119.52 27.5785 118.928 26.9001 118.957 26.7269C118.986 26.5826 120.443 25.0238 122.219 23.2486L125.423 20.03L122.175 16.7249C120.386 14.9063 118.928 13.3331 118.928 13.2465C118.928 13.0012 122.348 9.58054 122.594 9.58054C122.695 9.58054 124.225 11.0383 126 12.828C127.775 14.6177 129.276 16.0754 129.32 16.0754C129.377 16.0754 130.056 15.4259 130.849 14.6177C133.072 12.3517 135.814 9.66714 136.002 9.55168C136.175 9.46508 139.769 12.8568 139.899 13.2321C139.928 13.3331 138.499 14.8342 136.724 16.5805C134.631 18.6589 133.505 19.8713 133.505 20.0589C133.505 20.2465 134.631 21.4733 136.753 23.5661L140 26.7847L138.095 28.7187C137.056 29.7867 136.19 30.6527 136.19 30.6527C136.175 30.6383 134.689 29.1805 132.856 27.4053Z" fill="#FF3B3B"/>
<path d="M27.1773 6.30415C26.9464 6.21755 26.9175 2.4794 27.134 2.06085C27.2784 1.80105 27.466 1.78662 29.732 1.78662C31.0598 1.78662 32.2577 1.82992 32.3876 1.87322C32.5897 1.94538 32.6186 2.27734 32.6186 4.0093C32.6186 5.4093 32.5608 6.11652 32.4454 6.23198C32.3299 6.34745 31.5505 6.40518 29.8041 6.39074C28.4619 6.39074 27.2639 6.34745 27.1773 6.30415Z" fill="#FF3B3B"/>
<path d="M110.326 6.23197C110.254 6.13094 110.225 5.1062 110.268 3.95156L110.34 1.85878L112.909 1.81548C114.887 1.78661 115.478 1.81548 115.536 1.95981C115.68 2.4361 115.709 6.10208 115.565 6.24641C115.334 6.47733 110.485 6.4629 110.326 6.23197Z" fill="#FF3B3B"/>
<circle cx="69.5" cy="3.5" r="3.5" fill="#FF3B3B"/>
</svg>
