<svg width="40" height="42" viewBox="0 0 40 42" fill="none" xmlns="http://www.w3.org/2000/svg">
<path d="M0.608036 38.2553L10.4688 27.8589C7.93251 24.8085 6.54236 20.9469 6.54425 16.9575C6.54425 7.60727 14.0485 0 23.2721 0C32.4957 0 40 7.60727 40 16.9575C40 26.3077 32.4957 33.915 23.2721 33.915C19.8095 33.915 16.5097 32.8562 13.6885 30.8464L3.75288 41.3217C3.33759 41.7589 2.77903 42 2.18046 42C1.61389 42 1.07642 41.781 0.668404 41.3829C0.251958 40.9759 0.0117359 40.4181 0.000419617 39.8318C-0.0108967 39.2455 0.207615 38.6786 0.608036 38.2553ZM23.2721 4.42369C16.4544 4.42369 10.908 10.0462 10.908 16.9575C10.908 23.8688 16.4544 29.4913 23.2721 29.4913C30.0898 29.4913 35.6362 23.8688 35.6362 16.9575C35.6362 10.0462 30.0898 4.42369 23.2721 4.42369Z" fill="#FF3B3B"/>
</svg>
