<svg width="152" height="27" viewBox="0 0 152 27" fill="none" xmlns="http://www.w3.org/2000/svg">
<path d="M28.062 10.1255C27.9503 9.78019 27.7447 9.47313 27.4684 9.23912C27.192 9.00512 26.856 8.8535 26.4983 8.80144L19.1085 7.72223L15.8034 0.999115C15.1512 -0.330653 12.9861 -0.330653 12.3338 0.999115L9.02873 7.72223L1.65643 8.80144C1.29905 8.8536 0.963344 9.00529 0.687354 9.23931C0.411364 9.47333 0.206118 9.78033 0.094869 10.1255C-0.0169876 10.4707 -0.0302129 10.8404 0.056697 11.1927C0.143607 11.545 0.327164 11.8657 0.586494 12.1184L5.93114 17.3387L4.67149 24.727C4.61077 25.0849 4.65069 25.4527 4.78674 25.7889C4.9228 26.1252 5.14959 26.4166 5.44159 26.6304C5.73436 26.843 6.08037 26.9693 6.44069 26.9951C6.801 27.0208 7.16133 26.9451 7.48112 26.7763L14.0679 23.2863L20.6742 26.7763C20.9569 26.926 21.2665 27 21.5741 27C21.9837 26.9996 22.3829 26.8705 22.7159 26.6307C23.0077 26.4169 23.2345 26.1254 23.3705 25.7892C23.5066 25.4529 23.5465 25.0852 23.4859 24.7273L22.2263 17.339L27.5709 12.1187C27.8301 11.8658 28.0134 11.545 28.1002 11.1927C28.187 10.8404 28.1738 10.4707 28.062 10.1255ZM59.0228 10.1255C58.9111 9.78019 58.7055 9.47313 58.4292 9.23912C58.1528 9.00512 57.8168 8.8535 57.4591 8.80144L50.0693 7.72223L46.7642 0.999115C46.112 -0.330653 43.9469 -0.330653 43.2946 0.999115L39.9895 7.72223L32.6169 8.80144C32.2595 8.8536 31.9238 9.00529 31.6479 9.23931C31.3719 9.47333 31.1666 9.78033 31.0554 10.1255C30.9435 10.4707 30.9303 10.8404 31.0172 11.1927C31.1041 11.545 31.2877 11.8657 31.547 12.1184L36.8916 17.3387L35.632 24.727C35.5711 25.0849 35.6109 25.4527 35.747 25.789C35.883 26.1254 36.1099 26.4168 36.4021 26.6304C36.6949 26.843 37.0409 26.9693 37.4012 26.9951C37.7615 27.0208 38.1218 26.9451 38.4416 26.7763L45.0284 23.2863L51.6347 26.7763C51.9174 26.926 52.227 27 52.5346 27C52.9442 26.9996 53.3434 26.8705 53.6764 26.6307C53.9682 26.4169 54.195 26.1254 54.331 25.7892C54.4671 25.4529 54.507 25.0852 54.4465 24.7273L53.1868 17.339L58.5315 12.1187C58.7907 11.8659 58.9741 11.5451 59.061 11.1928C59.1478 10.8404 59.1346 10.4707 59.0228 10.1255ZM89.9836 10.1255C89.8719 9.78019 89.6663 9.47313 89.39 9.23912C89.1136 9.00512 88.7776 8.8535 88.4199 8.80144L81.0298 7.72223L77.7247 0.999115C77.0725 -0.330653 74.9074 -0.330653 74.2551 0.999115L70.95 7.72223L63.5774 8.80144C63.2201 8.8536 62.8843 9.00529 62.6084 9.23931C62.3324 9.47333 62.1271 9.78033 62.0159 10.1255C61.904 10.4707 61.8908 10.8404 61.9777 11.1927C62.0646 11.545 62.2482 11.8657 62.5075 12.1184L67.8521 17.3387L66.5925 24.727C66.5316 25.0849 66.5714 25.4527 66.7075 25.789C66.8435 26.1254 67.0704 26.4168 67.3626 26.6304C67.6554 26.843 68.0014 26.9693 68.3617 26.9951C68.722 27.0208 69.0823 26.9451 69.4021 26.7763L75.9892 23.2863L82.5956 26.7763C82.8782 26.926 83.1878 27 83.4954 27C83.905 26.9996 84.3042 26.8705 84.6372 26.6307C84.9291 26.4169 85.1558 26.1254 85.2918 25.7892C85.4279 25.4529 85.4678 25.0852 85.4072 24.7273L84.1476 17.339L89.4923 12.1187C89.7515 11.8659 89.9349 11.5451 90.0218 11.1928C90.1086 10.8404 90.0954 10.4707 89.9836 10.1255ZM120.944 10.1235C120.833 9.7781 120.627 9.47105 120.351 9.23704C120.074 9.00303 119.738 8.85142 119.381 8.79935L111.991 7.72014L108.686 0.997326C108.034 -0.332442 105.868 -0.332442 105.216 0.997326L101.911 7.72044L94.5385 8.79965C94.1812 8.85181 93.8455 9.0035 93.5695 9.23752C93.2935 9.47154 93.0882 9.77854 92.977 10.1238C92.8651 10.4689 92.8519 10.8386 92.9388 11.1909C93.0257 11.5432 93.2093 11.8639 93.4686 12.1166L98.8132 17.337L97.5536 24.7253C97.4929 25.0831 97.5328 25.4509 97.6688 25.7871C97.8049 26.1234 98.0317 26.4149 98.3237 26.6286C98.6165 26.8412 98.9625 26.9674 99.3228 26.9932C99.6831 27.0189 100.043 26.9432 100.363 26.7745L106.95 23.2845L113.557 26.7745C113.839 26.9242 114.149 26.9982 114.456 26.9982C114.866 26.9978 115.265 26.8687 115.598 26.6289C115.89 26.4151 116.117 26.1236 116.253 25.7874C116.389 25.4511 116.429 25.0834 116.368 24.7256L115.109 17.3372L120.453 12.1169C120.713 11.864 120.896 11.5432 120.983 11.1908C121.07 10.8384 121.056 10.4686 120.944 10.1235ZM151.905 10.1255C151.794 9.78019 151.588 9.47313 151.312 9.23912C151.035 9.00512 150.699 8.8535 150.342 8.80144L142.952 7.72253L139.647 0.999416C138.994 -0.330353 136.829 -0.330353 136.177 0.999416L132.872 7.72253L125.499 8.80144C125.142 8.85367 124.806 9.00538 124.53 9.23939C124.254 9.4734 124.049 9.78037 123.938 10.1255C123.826 10.4707 123.813 10.8404 123.9 11.1927C123.987 11.545 124.17 11.8657 124.429 12.1184L129.774 17.3387L128.514 24.727C128.454 25.0849 128.494 25.4527 128.63 25.7889C128.766 26.1252 128.992 26.4166 129.284 26.6304C129.577 26.8429 129.923 26.9691 130.284 26.9949C130.644 27.0207 131.004 26.945 131.324 26.7763L137.911 23.2863L144.517 26.7763C144.8 26.926 145.11 27 145.417 27C145.827 26.9996 146.226 26.8705 146.559 26.6307C146.851 26.4169 147.078 26.1254 147.214 25.7892C147.35 25.4529 147.39 25.0852 147.329 24.7273L146.07 17.339L151.414 12.1187C151.673 11.8658 151.857 11.545 151.943 11.1927C152.03 10.8404 152.017 10.4707 151.905 10.1255ZM142.636 15.2642C142.411 15.4841 142.242 15.7559 142.145 16.056C142.047 16.3561 142.024 16.6756 142.077 16.9868L142.847 21.5014L138.809 19.3686C138.531 19.2212 138.222 19.1444 137.909 19.1449C137.595 19.1444 137.286 19.2212 137.009 19.3686L132.992 21.4957L133.762 16.9871C133.815 16.6759 133.792 16.3564 133.694 16.0562C133.597 15.7561 133.428 15.4843 133.203 15.2644L129.944 12.0817L134.435 11.4246C134.745 11.379 135.04 11.2584 135.293 11.0731C135.547 10.8879 135.752 10.6436 135.891 10.3612L137.909 6.25287L139.927 10.3612C140.065 10.6441 140.27 10.8888 140.524 11.0741C140.778 11.2594 141.073 11.3797 141.384 11.4246L145.893 12.0838L142.636 15.2642Z" fill="#FF3B3B"/>
</svg>
